<svg xmlns="http://www.w3.org/2000/svg" viewBox="0 0 89.8 34.58"><defs><style>.cls-1{fill:#44b1df;}.cls-2{fill:#21386e;}</style></defs><title>simplr_logo</title><g id="Layer_2" data-name="Layer 2"><g id="Layer_1-2" data-name="Layer 1"><path class="cls-1" d="M24.55,8.78a4.8,4.8,0,0,0-1.6-.3,4.19,4.19,0,0,0-.91.1,3.49,3.49,0,0,0-.88.32,1.93,1.93,0,0,0-.68.58,1.48,1.48,0,0,0-.26.88,1.46,1.46,0,0,0,.62,1.27,5.9,5.9,0,0,0,1.57.75q.95.31,2,.62a8.43,8.43,0,0,1,2,.88c.11.06.19.15.29.23V10.29A14.76,14.76,0,0,0,24.55,8.78Z"/><path class="cls-1" d="M26.58,22.6a6.58,6.58,0,0,1-2.26,1.12,10.38,10.38,0,0,1-6-.18,8.33,8.33,0,0,1-2.86-1.77L18.3,18.6a4.2,4.2,0,0,0,1.57,1.29,4.49,4.49,0,0,0,2,.46,4.44,4.44,0,0,0,1-.12,3.26,3.26,0,0,0,.91-.35,2,2,0,0,0,.65-.6,1.49,1.49,0,0,0,.25-.86A1.56,1.56,0,0,0,24,17.1a5.89,5.89,0,0,0-1.6-.82q-1-.34-2.08-.68a9.32,9.32,0,0,1-2.08-.91,5,5,0,0,1-1.6-1.51A4.31,4.31,0,0,1,16,10.72a5.54,5.54,0,0,1,.58-2.6,5.65,5.65,0,0,1,1.56-1.87A6.79,6.79,0,0,1,20.4,5.11,9.22,9.22,0,0,1,23,4.74a10.33,10.33,0,0,1,3,.44l.48.17a7.29,7.29,0,0,0-7-5.35H7.3A7.3,7.3,0,0,0,0,7.3v12.2a7.3,7.3,0,0,0,7.3,7.3h6.1l13.4,7.79V22.39C26.72,22.46,26.66,22.54,26.58,22.6Z"/><path class="cls-2" d="M30.5,7a2.26,2.26,0,1,1,3.86,1.6A2.26,2.26,0,0,1,30.5,7Zm.31,4h3.9V23.61h-3.9Z"/><path class="cls-2" d="M37,11H40.7v1.72h.05a3.16,3.16,0,0,1,.52-.73,3.78,3.78,0,0,1,.81-.65,4.6,4.6,0,0,1,1.07-.47,4.45,4.45,0,0,1,1.3-.18,4.93,4.93,0,0,1,2.35.55,3.46,3.46,0,0,1,1.55,1.72A4.22,4.22,0,0,1,50,11.19a4.93,4.93,0,0,1,2.37-.52,4.82,4.82,0,0,1,2.14.43,3.52,3.52,0,0,1,1.38,1.17A5,5,0,0,1,56.6,14a10,10,0,0,1,.22,2.15v7.46h-3.9V16.26a2.94,2.94,0,0,0-.38-1.52,1.43,1.43,0,0,0-1.34-.64,2.58,2.58,0,0,0-1.13.22,1.87,1.87,0,0,0-.73.61,2.55,2.55,0,0,0-.39.91,5,5,0,0,0-.12,1.09v6.68h-3.9V16.93q0-.34,0-.83a3.33,3.33,0,0,0-.18-.94,1.79,1.79,0,0,0-.51-.75,1.5,1.5,0,0,0-1-.31,2.41,2.41,0,0,0-1.22.27,1.86,1.86,0,0,0-.71.73,3,3,0,0,0-.33,1,8.89,8.89,0,0,0-.08,1.2v6.29H37Z"/><path class="cls-2" d="M59.13,11h3.59v1.66h.05a4.32,4.32,0,0,1,.61-.69,4.63,4.63,0,0,1,.88-.64,5.48,5.48,0,0,1,1.11-.47,4.35,4.35,0,0,1,1.27-.18,6.51,6.51,0,0,1,2.55.48,5.69,5.69,0,0,1,2,1.35,6,6,0,0,1,1.26,2.07,7.54,7.54,0,0,1,.44,2.63,8,8,0,0,1-.4,2.53,7,7,0,0,1-1.14,2.15,5.59,5.59,0,0,1-1.81,1.5,5.13,5.13,0,0,1-2.42.56,6.71,6.71,0,0,1-2.28-.38,3.63,3.63,0,0,1-1.73-1.29H63v7.28h-3.9Zm3.59,6.32a3.27,3.27,0,0,0,.82,2.31,3.44,3.44,0,0,0,4.6,0A3.27,3.27,0,0,0,69,17.3,3.27,3.27,0,0,0,68.14,15a3.44,3.44,0,0,0-4.6,0A3.27,3.27,0,0,0,62.72,17.3Z"/><path class="cls-2" d="M74.93,4h3.9V23.61h-3.9Z"/><path class="cls-2" d="M80.9,11h3.9v2h.05a4.79,4.79,0,0,1,1.48-1.75,3.75,3.75,0,0,1,2.16-.59l.68,0a3.34,3.34,0,0,1,.62.1v3.56a5.87,5.87,0,0,0-.82-.2,5.36,5.36,0,0,0-.84-.06,4.15,4.15,0,0,0-1.77.31,2.35,2.35,0,0,0-1,.87,3.31,3.31,0,0,0-.46,1.34,13,13,0,0,0-.1,1.72v5.28H80.9Z"/></g></g></svg>